<?xml version="1.0" encoding="UTF-8" standalone="no"?>
<!DOCTYPE svg PUBLIC "-//W3C//DTD SVG 1.1//EN"
 "http://www.w3.org/Graphics/SVG/1.1/DTD/svg11.dtd">
<!-- Generated by graphviz version 14.1.4 (20260321.0153)
 -->
<!-- Title: examples/example2.c Pages: 1 -->
<svg width="288pt" height="196pt"
 viewBox="0.00 0.00 288.00 196.00" xmlns="http://www.w3.org/2000/svg" xmlns:xlink="http://www.w3.org/1999/xlink">
<g id="graph0" class="graph" transform="scale(1 1) rotate(0) translate(4 192)">
<title>examples/example2.c</title>
<!-- Node1 -->
<g id="Node000001" class="node">
<title>Node1</title>
<g id="a_Node000001"><a xlink:title="Exemplo: Interface com Conversor D/A MCP4921 (12 bits) via SPI.">
<polygon fill="#999999" stroke="#666666" points="176.75,-188 65.5,-188 65.5,-168 176.75,-168 176.75,-188"/>
<text xml:space="preserve" text-anchor="middle" x="121.12" y="-174.5" font-family="Helvetica,sans-Serif" font-size="10.00">examples/example2.c</text>
</a>
</g>
</g>
<!-- Node2 -->
<g id="Node000002" class="node">
<title>Node2</title>
<g id="a_Node000002"><a xlink:title=" ">
<polygon fill="#e0e0e0" stroke="#999999" points="48.25,-20 0,-20 0,0 48.25,0 48.25,-20"/>
<text xml:space="preserve" text-anchor="middle" x="24.12" y="-6.5" font-family="Helvetica,sans-Serif" font-size="10.00">avr/io.h</text>
</a>
</g>
</g>
<!-- Node1&#45;&gt;Node2 -->
<g id="edge1_Node000001_Node000002" class="edge">
<title>Node1&#45;&gt;Node2</title>
<g id="a_edge1_Node000001_Node000002"><a xlink:title=" ">
<path fill="none" stroke="#63b8ff" d="M102.57,-167.6C88.95,-159.81 71.02,-147.51 60.12,-132 38.47,-101.16 29.66,-57.16 26.22,-31.59"/>
<polygon fill="#63b8ff" stroke="#63b8ff" points="29.72,-31.39 25.07,-21.87 22.76,-32.21 29.72,-31.39"/>
</a>
</g>
</g>
<!-- Node3 -->
<g id="Node000003" class="node">
<title>Node3</title>
<g id="a_Node000003"><a xlink:title=" ">
<polygon fill="#e0e0e0" stroke="#999999" points="186.38,-132 123.88,-132 123.88,-112 186.38,-112 186.38,-132"/>
<text xml:space="preserve" text-anchor="middle" x="155.12" y="-118.5" font-family="Helvetica,sans-Serif" font-size="10.00">util/delay.h</text>
</a>
</g>
</g>
<!-- Node1&#45;&gt;Node3 -->
<g id="edge2_Node000001_Node000003" class="edge">
<title>Node1&#45;&gt;Node3</title>
<g id="a_edge2_Node000001_Node000003"><a xlink:title=" ">
<path fill="none" stroke="#63b8ff" d="M127.05,-167.59C131.48,-160.55 137.7,-150.67 143.16,-142"/>
<polygon fill="#63b8ff" stroke="#63b8ff" points="146.1,-143.91 148.46,-133.58 140.17,-140.18 146.1,-143.91"/>
</a>
</g>
</g>
<!-- Node4 -->
<g id="Node000004" class="node">
<title>Node4</title>
<g id="a_Node000004"><a xlink:title=" ">
<polygon fill="#e0e0e0" stroke="#999999" points="280.12,-132 204.12,-132 204.12,-112 280.12,-112 280.12,-132"/>
<text xml:space="preserve" text-anchor="middle" x="242.12" y="-118.5" font-family="Helvetica,sans-Serif" font-size="10.00">avr/interrupt.h</text>
</a>
</g>
</g>
<!-- Node1&#45;&gt;Node4 -->
<g id="edge3_Node000001_Node000004" class="edge">
<title>Node1&#45;&gt;Node4</title>
<g id="a_edge3_Node000001_Node000004"><a xlink:title=" ">
<path fill="none" stroke="#63b8ff" d="M142.2,-167.59C161.08,-159.17 189.04,-146.69 210.59,-137.07"/>
<polygon fill="#63b8ff" stroke="#63b8ff" points="211.8,-140.37 219.5,-133.1 208.94,-133.98 211.8,-140.37"/>
</a>
</g>
</g>
<!-- Node5 -->
<g id="Node000005" class="node">
<title>Node5</title>
<g id="a_Node000005"><a xlink:href="spi_8h.html" target="_top" xlink:title="Interface pública (API) da biblioteca SPI para microcontroladores AVR.">
<polygon fill="white" stroke="#666666" points="105.62,-132 68.62,-132 68.62,-112 105.62,-112 105.62,-132"/>
<text xml:space="preserve" text-anchor="middle" x="87.12" y="-118.5" font-family="Helvetica,sans-Serif" font-size="10.00">spi.h</text>
</a>
</g>
</g>
<!-- Node1&#45;&gt;Node5 -->
<g id="edge4_Node000001_Node000005" class="edge">
<title>Node1&#45;&gt;Node5</title>
<g id="a_edge4_Node000001_Node000005"><a xlink:title=" ">
<path fill="none" stroke="#63b8ff" d="M115.2,-167.59C110.77,-160.55 104.55,-150.67 99.09,-142"/>
<polygon fill="#63b8ff" stroke="#63b8ff" points="102.08,-140.18 93.79,-133.58 96.15,-143.91 102.08,-140.18"/>
</a>
</g>
</g>
<!-- Node6 -->
<g id="Node000006" class="node">
<title>Node6</title>
<g id="a_Node000006"><a xlink:title=" ">
<polygon fill="#e0e0e0" stroke="#999999" points="195.25,-20 147,-20 147,0 195.25,0 195.25,-20"/>
<text xml:space="preserve" text-anchor="middle" x="171.12" y="-6.5" font-family="Helvetica,sans-Serif" font-size="10.00">stdint.h</text>
</a>
</g>
</g>
<!-- Node5&#45;&gt;Node6 -->
<g id="edge5_Node000005_Node000006" class="edge">
<title>Node5&#45;&gt;Node6</title>
<g id="a_edge5_Node000005_Node000006"><a xlink:title=" ">
<path fill="none" stroke="#63b8ff" d="M105.85,-113.32C121.37,-105.99 142.81,-93.47 155.12,-76 164.35,-62.91 168.28,-45.07 169.94,-31.4"/>
<polygon fill="#63b8ff" stroke="#63b8ff" points="173.4,-32.04 170.79,-21.77 166.43,-31.43 173.4,-32.04"/>
</a>
</g>
</g>
<!-- Node7 -->
<g id="Node000007" class="node">
<title>Node7</title>
<g id="a_Node000007"><a xlink:title=" ">
<polygon fill="#e0e0e0" stroke="#999999" points="127,-20 71.25,-20 71.25,0 127,0 127,-20"/>
<text xml:space="preserve" text-anchor="middle" x="99.12" y="-6.5" font-family="Helvetica,sans-Serif" font-size="10.00">stdbool.h</text>
</a>
</g>
</g>
<!-- Node5&#45;&gt;Node7 -->
<g id="edge6_Node000005_Node000007" class="edge">
<title>Node5&#45;&gt;Node7</title>
<g id="a_edge6_Node000005_Node000007"><a xlink:title=" ">
<path fill="none" stroke="#63b8ff" d="M81.77,-111.69C75.18,-99.01 65.51,-75.67 71.12,-56 73.83,-46.53 79.17,-37.11 84.47,-29.35"/>
<polygon fill="#63b8ff" stroke="#63b8ff" points="87.17,-31.59 90.29,-21.47 81.53,-27.44 87.17,-31.59"/>
</a>
</g>
</g>
<!-- Node8 -->
<g id="Node000008" class="node">
<title>Node8</title>
<g id="a_Node000008"><a xlink:href="spi__types_8h.html" target="_top" xlink:title="Definições de tipos, enums e estruturas para a biblioteca SPI.">
<polygon fill="white" stroke="#666666" points="146.25,-76 80,-76 80,-56 146.25,-56 146.25,-76"/>
<text xml:space="preserve" text-anchor="middle" x="113.12" y="-62.5" font-family="Helvetica,sans-Serif" font-size="10.00">spi_types.h</text>
</a>
</g>
</g>
<!-- Node5&#45;&gt;Node8 -->
<g id="edge7_Node000005_Node000008" class="edge">
<title>Node5&#45;&gt;Node8</title>
<g id="a_edge7_Node000005_Node000008"><a xlink:title=" ">
<path fill="none" stroke="#63b8ff" d="M91.65,-111.59C94.97,-104.7 99.59,-95.1 103.7,-86.57"/>
<polygon fill="#63b8ff" stroke="#63b8ff" points="106.81,-88.19 107.99,-77.66 100.5,-85.15 106.81,-88.19"/>
</a>
</g>
</g>
<!-- Node8&#45;&gt;Node2 -->
<g id="edge10_Node000008_Node000002" class="edge">
<title>Node8&#45;&gt;Node2</title>
<g id="a_edge10_Node000008_Node000002"><a xlink:title=" ">
<path fill="none" stroke="#63b8ff" d="M97.62,-55.59C84.3,-47.51 64.85,-35.71 49.3,-26.27"/>
<polygon fill="#63b8ff" stroke="#63b8ff" points="51.41,-23.46 41.04,-21.26 47.78,-29.44 51.41,-23.46"/>
</a>
</g>
</g>
<!-- Node8&#45;&gt;Node6 -->
<g id="edge8_Node000008_Node000006" class="edge">
<title>Node8&#45;&gt;Node6</title>
<g id="a_edge8_Node000008_Node000006"><a xlink:title=" ">
<path fill="none" stroke="#63b8ff" d="M123.23,-55.59C131.38,-48.01 143.06,-37.13 152.84,-28.02"/>
<polygon fill="#63b8ff" stroke="#63b8ff" points="155.1,-30.71 160.03,-21.33 150.33,-25.58 155.1,-30.71"/>
</a>
</g>
</g>
<!-- Node8&#45;&gt;Node7 -->
<g id="edge9_Node000008_Node000007" class="edge">
<title>Node8&#45;&gt;Node7</title>
<g id="a_edge9_Node000008_Node000007"><a xlink:title=" ">
<path fill="none" stroke="#63b8ff" d="M110.69,-55.59C108.96,-48.93 106.58,-39.75 104.42,-31.44"/>
<polygon fill="#63b8ff" stroke="#63b8ff" points="107.81,-30.56 101.92,-21.76 101.04,-32.32 107.81,-30.56"/>
</a>
</g>
</g>
</g>
</svg>
