<?xml version="1.0" encoding="UTF-8" standalone="no"?>
<!DOCTYPE svg PUBLIC "-//W3C//DTD SVG 1.1//EN"
 "http://www.w3.org/Graphics/SVG/1.1/DTD/svg11.dtd">
<!-- Generated by graphviz version 14.1.4 (20260321.0153)
 -->
<!-- Title: examples/example1_slave.c Pages: 1 -->
<svg width="288pt" height="196pt"
 viewBox="0.00 0.00 288.00 196.00" xmlns="http://www.w3.org/2000/svg" xmlns:xlink="http://www.w3.org/1999/xlink">
<g id="graph0" class="graph" transform="scale(1 1) rotate(0) translate(4 192)">
<title>examples/example1_slave.c</title>
<!-- Node1 -->
<g id="Node000001" class="node">
<title>Node1</title>
<g id="a_Node000001"><a xlink:title="Exemplo SPI Slave: Resposta dinâmica baseada em processamento.">
<polygon fill="#999999" stroke="#666666" points="245.75,-188 106,-188 106,-168 245.75,-168 245.75,-188"/>
<text xml:space="preserve" text-anchor="middle" x="175.88" y="-174.5" font-family="Helvetica,sans-Serif" font-size="10.00">examples/example1_slave.c</text>
</a>
</g>
</g>
<!-- Node2 -->
<g id="Node000002" class="node">
<title>Node2</title>
<g id="a_Node000002"><a xlink:href="spi_8h.html" target="_top" xlink:title="Interface pública (API) da biblioteca SPI para microcontroladores AVR.">
<polygon fill="white" stroke="#666666" points="121.38,-132 84.38,-132 84.38,-112 121.38,-112 121.38,-132"/>
<text xml:space="preserve" text-anchor="middle" x="102.88" y="-118.5" font-family="Helvetica,sans-Serif" font-size="10.00">spi.h</text>
</a>
</g>
</g>
<!-- Node1&#45;&gt;Node2 -->
<g id="edge1_Node000001_Node000002" class="edge">
<title>Node1&#45;&gt;Node2</title>
<g id="a_edge1_Node000001_Node000002"><a xlink:title=" ">
<path fill="none" stroke="#63b8ff" d="M163.16,-167.59C152.48,-159.7 137,-148.24 124.39,-138.92"/>
<polygon fill="#63b8ff" stroke="#63b8ff" points="126.78,-136.33 116.66,-133.2 122.62,-141.96 126.78,-136.33"/>
</a>
</g>
</g>
<!-- Node6 -->
<g id="Node000006" class="node">
<title>Node6</title>
<g id="a_Node000006"><a xlink:title=" ">
<polygon fill="#e0e0e0" stroke="#999999" points="197,-20 148.75,-20 148.75,0 197,0 197,-20"/>
<text xml:space="preserve" text-anchor="middle" x="172.88" y="-6.5" font-family="Helvetica,sans-Serif" font-size="10.00">avr/io.h</text>
</a>
</g>
</g>
<!-- Node1&#45;&gt;Node6 -->
<g id="edge8_Node000001_Node000006" class="edge">
<title>Node1&#45;&gt;Node6</title>
<g id="a_edge8_Node000001_Node000006"><a xlink:title=" ">
<path fill="none" stroke="#63b8ff" d="M175.71,-167.6C175.23,-141.46 173.9,-67.48 173.24,-31.36"/>
<polygon fill="#63b8ff" stroke="#63b8ff" points="176.75,-31.75 173.07,-21.81 169.75,-31.87 176.75,-31.75"/>
</a>
</g>
</g>
<!-- Node7 -->
<g id="Node000007" class="node">
<title>Node7</title>
<g id="a_Node000007"><a xlink:title=" ">
<polygon fill="#e0e0e0" stroke="#999999" points="279.88,-132 203.88,-132 203.88,-112 279.88,-112 279.88,-132"/>
<text xml:space="preserve" text-anchor="middle" x="241.88" y="-118.5" font-family="Helvetica,sans-Serif" font-size="10.00">avr/interrupt.h</text>
</a>
</g>
</g>
<!-- Node1&#45;&gt;Node7 -->
<g id="edge9_Node000001_Node000007" class="edge">
<title>Node1&#45;&gt;Node7</title>
<g id="a_edge9_Node000001_Node000007"><a xlink:title=" ">
<path fill="none" stroke="#63b8ff" d="M187.37,-167.59C196.84,-159.85 210.48,-148.69 221.75,-139.47"/>
<polygon fill="#63b8ff" stroke="#63b8ff" points="223.82,-142.3 229.34,-133.26 219.38,-136.88 223.82,-142.3"/>
</a>
</g>
</g>
<!-- Node3 -->
<g id="Node000003" class="node">
<title>Node3</title>
<g id="a_Node000003"><a xlink:title=" ">
<polygon fill="#e0e0e0" stroke="#999999" points="128,-20 79.75,-20 79.75,0 128,0 128,-20"/>
<text xml:space="preserve" text-anchor="middle" x="103.88" y="-6.5" font-family="Helvetica,sans-Serif" font-size="10.00">stdint.h</text>
</a>
</g>
</g>
<!-- Node2&#45;&gt;Node3 -->
<g id="edge2_Node000002_Node000003" class="edge">
<title>Node2&#45;&gt;Node3</title>
<g id="a_edge2_Node000002_Node000003"><a xlink:title=" ">
<path fill="none" stroke="#63b8ff" d="M107.29,-111.6C111.22,-102.67 116.68,-88.75 118.88,-76 121.53,-60.62 117.23,-43.42 112.57,-30.58"/>
<polygon fill="#63b8ff" stroke="#63b8ff" points="115.93,-29.55 108.94,-21.59 109.44,-32.18 115.93,-29.55"/>
</a>
</g>
</g>
<!-- Node4 -->
<g id="Node000004" class="node">
<title>Node4</title>
<g id="a_Node000004"><a xlink:title=" ">
<polygon fill="#e0e0e0" stroke="#999999" points="55.75,-20 0,-20 0,0 55.75,0 55.75,-20"/>
<text xml:space="preserve" text-anchor="middle" x="27.88" y="-6.5" font-family="Helvetica,sans-Serif" font-size="10.00">stdbool.h</text>
</a>
</g>
</g>
<!-- Node2&#45;&gt;Node4 -->
<g id="edge3_Node000002_Node000004" class="edge">
<title>Node2&#45;&gt;Node4</title>
<g id="a_edge3_Node000002_Node000004"><a xlink:title=" ">
<path fill="none" stroke="#63b8ff" d="M84.18,-113.99C68.23,-106.96 46.14,-94.5 34.88,-76 26.83,-62.77 25.37,-45.19 25.76,-31.64"/>
<polygon fill="#63b8ff" stroke="#63b8ff" points="29.25,-31.9 26.45,-21.68 22.27,-31.42 29.25,-31.9"/>
</a>
</g>
</g>
<!-- Node5 -->
<g id="Node000005" class="node">
<title>Node5</title>
<g id="a_Node000005"><a xlink:href="spi__types_8h.html" target="_top" xlink:title="Definições de tipos, enums e estruturas para a biblioteca SPI.">
<polygon fill="white" stroke="#666666" points="110,-76 43.75,-76 43.75,-56 110,-56 110,-76"/>
<text xml:space="preserve" text-anchor="middle" x="76.88" y="-62.5" font-family="Helvetica,sans-Serif" font-size="10.00">spi_types.h</text>
</a>
</g>
</g>
<!-- Node2&#45;&gt;Node5 -->
<g id="edge4_Node000002_Node000005" class="edge">
<title>Node2&#45;&gt;Node5</title>
<g id="a_edge4_Node000002_Node000005"><a xlink:title=" ">
<path fill="none" stroke="#63b8ff" d="M98.35,-111.59C95.03,-104.7 90.41,-95.1 86.3,-86.57"/>
<polygon fill="#63b8ff" stroke="#63b8ff" points="89.5,-85.15 82.01,-77.66 83.19,-88.19 89.5,-85.15"/>
</a>
</g>
</g>
<!-- Node5&#45;&gt;Node3 -->
<g id="edge5_Node000005_Node000003" class="edge">
<title>Node5&#45;&gt;Node3</title>
<g id="a_edge5_Node000005_Node000003"><a xlink:title=" ">
<path fill="none" stroke="#63b8ff" d="M81.58,-55.59C85.02,-48.7 89.82,-39.1 94.09,-30.57"/>
<polygon fill="#63b8ff" stroke="#63b8ff" points="97.21,-32.16 98.55,-21.65 90.95,-29.03 97.21,-32.16"/>
</a>
</g>
</g>
<!-- Node5&#45;&gt;Node4 -->
<g id="edge6_Node000005_Node000004" class="edge">
<title>Node5&#45;&gt;Node4</title>
<g id="a_edge6_Node000005_Node000004"><a xlink:title=" ">
<path fill="none" stroke="#63b8ff" d="M68.34,-55.59C61.59,-48.16 51.99,-37.58 43.83,-28.58"/>
<polygon fill="#63b8ff" stroke="#63b8ff" points="46.64,-26.47 37.33,-21.42 41.46,-31.18 46.64,-26.47"/>
</a>
</g>
</g>
<!-- Node5&#45;&gt;Node6 -->
<g id="edge7_Node000005_Node000006" class="edge">
<title>Node5&#45;&gt;Node6</title>
<g id="a_edge7_Node000005_Node000006"><a xlink:title=" ">
<path fill="none" stroke="#63b8ff" d="M93.6,-55.59C108.1,-47.44 129.35,-35.48 146.2,-26"/>
<polygon fill="#63b8ff" stroke="#63b8ff" points="147.7,-29.17 154.7,-21.22 144.27,-23.07 147.7,-29.17"/>
</a>
</g>
</g>
</g>
</svg>
