<?xml version="1.0" encoding="UTF-8" standalone="no"?>
<!DOCTYPE svg PUBLIC "-//W3C//DTD SVG 1.1//EN"
 "http://www.w3.org/Graphics/SVG/1.1/DTD/svg11.dtd">
<!-- Generated by graphviz version 14.1.4 (20260321.0153)
 -->
<!-- Title: main Pages: 1 -->
<svg width="563pt" height="446pt"
 viewBox="0.00 0.00 563.00 446.00" xmlns="http://www.w3.org/2000/svg" xmlns:xlink="http://www.w3.org/1999/xlink">
<g id="graph0" class="graph" transform="scale(1 1) rotate(0) translate(4 442)">
<title>main</title>
<!-- Node1 -->
<g id="Node000001" class="node">
<title>Node1</title>
<g id="a_Node000001"><a xlink:title="Ponto de entrada do teste de estresse.">
<polygon fill="#999999" stroke="#666666" points="37,-229 0,-229 0,-209 37,-209 37,-229"/>
<text xml:space="preserve" text-anchor="middle" x="18.5" y="-215.5" font-family="Helvetica,sans-Serif" font-size="10.00">main</text>
</a>
</g>
</g>
<!-- Node2 -->
<g id="Node000002" class="node">
<title>Node2</title>
<g id="a_Node000002"><a xlink:href="group___s_p_i___a_s_y_n_c.html#gac03f9a6e554cd5703680083142752b4e" target="_top" xlink:title="Checa se ocorreu erro de overflow nos buffers.">
<polygon fill="white" stroke="#666666" points="166.25,-438 74.5,-438 74.5,-418 166.25,-418 166.25,-438"/>
<text xml:space="preserve" text-anchor="middle" x="120.38" y="-424.5" font-family="Helvetica,sans-Serif" font-size="10.00">spi_had_overflow</text>
</a>
</g>
</g>
<!-- Node1&#45;&gt;Node2 -->
<g id="edge1_Node000001_Node000002" class="edge">
<title>Node1&#45;&gt;Node2</title>
<g id="a_edge1_Node000001_Node000002"><a xlink:title=" ">
<path fill="none" stroke="#63b8ff" d="M19.41,-229.1C19.69,-260.06 24.65,-354.78 73,-409 73.68,-409.77 74.4,-410.5 75.15,-411.21"/>
<polygon fill="#63b8ff" stroke="#63b8ff" points="72.78,-413.81 82.93,-416.84 76.89,-408.14 72.78,-413.81"/>
</a>
</g>
</g>
<!-- Node3 -->
<g id="Node000003" class="node">
<title>Node3</title>
<g id="a_Node000003"><a xlink:href="group___s_p_i___i_n_i_t.html#gad9402c2ef9fda902cd461c0048fa5c89" target="_top" xlink:title="Inicializa o módulo SPI.">
<polygon fill="white" stroke="#666666" points="143.75,-400 97,-400 97,-380 143.75,-380 143.75,-400"/>
<text xml:space="preserve" text-anchor="middle" x="120.38" y="-386.5" font-family="Helvetica,sans-Serif" font-size="10.00">spi_init</text>
</a>
</g>
</g>
<!-- Node1&#45;&gt;Node3 -->
<g id="edge2_Node000001_Node000003" class="edge">
<title>Node1&#45;&gt;Node3</title>
<g id="a_edge2_Node000001_Node000003"><a xlink:title=" ">
<path fill="none" stroke="#63b8ff" d="M20.65,-229.2C24.05,-255.08 36.24,-324.19 73,-366 76.87,-370.4 81.73,-374.1 86.85,-377.19"/>
<polygon fill="#63b8ff" stroke="#63b8ff" points="84.97,-380.16 95.46,-381.67 88.21,-373.95 84.97,-380.16"/>
</a>
</g>
</g>
<!-- Node6 -->
<g id="Node000006" class="node">
<title>Node6</title>
<g id="a_Node000006"><a xlink:href="group___s_p_i___a_s_y_n_c.html#gab1e1145c0c06968091517a0f1784cf90" target="_top" xlink:title="Limpa o buffer de recepção (descarta dados).">
<polygon fill="white" stroke="#666666" points="299.62,-362 231.12,-362 231.12,-342 299.62,-342 299.62,-362"/>
<text xml:space="preserve" text-anchor="middle" x="265.38" y="-348.5" font-family="Helvetica,sans-Serif" font-size="10.00">spi_rx_flush</text>
</a>
</g>
</g>
<!-- Node1&#45;&gt;Node6 -->
<g id="edge10_Node000001_Node000006" class="edge">
<title>Node1&#45;&gt;Node6</title>
<g id="a_edge10_Node000001_Node000006"><a xlink:title=" ">
<path fill="none" stroke="#63b8ff" d="M22.9,-229.42C29.47,-247.88 45.73,-286.22 73,-306 116.14,-337.3 177.75,-347.54 219.31,-350.76"/>
<polygon fill="#63b8ff" stroke="#63b8ff" points="219.02,-354.24 229.22,-351.4 219.47,-347.26 219.02,-354.24"/>
</a>
</g>
</g>
<!-- Node7 -->
<g id="Node000007" class="node">
<title>Node7</title>
<g id="a_Node000007"><a xlink:href="group___s_p_i___a_s_y_n_c.html#gaf278870417819cf590a1b39d4eb3c4a5" target="_top" xlink:title="Limpa o buffer de transmissão e interrompe envios pendentes.">
<polygon fill="white" stroke="#666666" points="299.62,-324 231.12,-324 231.12,-304 299.62,-304 299.62,-324"/>
<text xml:space="preserve" text-anchor="middle" x="265.38" y="-310.5" font-family="Helvetica,sans-Serif" font-size="10.00">spi_tx_flush</text>
</a>
</g>
</g>
<!-- Node1&#45;&gt;Node7 -->
<g id="edge12_Node000001_Node000007" class="edge">
<title>Node1&#45;&gt;Node7</title>
<g id="a_edge12_Node000001_Node000007"><a xlink:title=" ">
<path fill="none" stroke="#63b8ff" d="M26.04,-229.47C34.95,-242.77 52.18,-265.4 73,-277 118.6,-302.41 178.74,-310.63 219.34,-313.15"/>
<polygon fill="#63b8ff" stroke="#63b8ff" points="219.08,-316.64 229.24,-313.67 219.44,-309.65 219.08,-316.64"/>
</a>
</g>
</g>
<!-- Node8 -->
<g id="Node000008" class="node">
<title>Node8</title>
<g id="a_Node000008"><a xlink:href="group___s_p_i___a_s_y_n_c.html#gaa9fa3d0d9a19bee52b8b2b89e7739ff2" target="_top" xlink:title="Verifica se o módulo está processando alguma transmissão.">
<polygon fill="white" stroke="#666666" points="154.25,-248 86.5,-248 86.5,-228 154.25,-228 154.25,-248"/>
<text xml:space="preserve" text-anchor="middle" x="120.38" y="-234.5" font-family="Helvetica,sans-Serif" font-size="10.00">spi_is_busy</text>
</a>
</g>
</g>
<!-- Node1&#45;&gt;Node8 -->
<g id="edge7_Node000001_Node000008" class="edge">
<title>Node1&#45;&gt;Node8</title>
<g id="a_edge7_Node000001_Node000008"><a xlink:title=" ">
<path fill="none" stroke="#63b8ff" d="M37.36,-222.4C47.96,-224.41 61.92,-227.07 75.31,-229.62"/>
<polygon fill="#63b8ff" stroke="#63b8ff" points="74.37,-233 84.85,-231.43 75.68,-226.12 74.37,-233"/>
</a>
</g>
</g>
<!-- Node9 -->
<g id="Node000009" class="node">
<title>Node9</title>
<g id="a_Node000009"><a xlink:href="group___s_p_i___a_s_y_n_c.html#gaab1d347c86fb34f3cd07b2de726fa2e9" target="_top" xlink:title="Verifica o espaço pendente no buffer de transmissão.">
<polygon fill="white" stroke="#666666" points="308.25,-267 222.5,-267 222.5,-247 308.25,-247 308.25,-267"/>
<text xml:space="preserve" text-anchor="middle" x="265.38" y="-253.5" font-family="Helvetica,sans-Serif" font-size="10.00">spi_tx_available</text>
</a>
</g>
</g>
<!-- Node1&#45;&gt;Node9 -->
<g id="edge11_Node000001_Node000009" class="edge">
<title>Node1&#45;&gt;Node9</title>
<g id="a_edge11_Node000001_Node000009"><a xlink:title=" ">
<path fill="none" stroke="#63b8ff" d="M29.86,-229.39C39.91,-238.67 56.07,-251.6 73,-257 117.85,-271.31 171.67,-269.78 210.8,-265.56"/>
<polygon fill="#63b8ff" stroke="#63b8ff" points="211.17,-269.04 220.69,-264.39 210.34,-262.09 211.17,-269.04"/>
</a>
</g>
</g>
<!-- Node10 -->
<g id="Node000010" class="node">
<title>Node10</title>
<g id="a_Node000010"><a xlink:href="group___s_p_i___m_a_s_t_e_r.html#ga3312b5d618b5c128b7d16cb63bfc0239" target="_top" xlink:title="Registra um pino de Chip Select (CS) para um dispositivo escravo.">
<polygon fill="white" stroke="#666666" points="167.75,-210 73,-210 73,-190 167.75,-190 167.75,-210"/>
<text xml:space="preserve" text-anchor="middle" x="120.38" y="-196.5" font-family="Helvetica,sans-Serif" font-size="10.00">spi_register_slave</text>
</a>
</g>
</g>
<!-- Node1&#45;&gt;Node10 -->
<g id="edge9_Node000001_Node000010" class="edge">
<title>Node1&#45;&gt;Node10</title>
<g id="a_edge9_Node000001_Node000010"><a xlink:title=" ">
<path fill="none" stroke="#63b8ff" d="M37.36,-215.6C44.3,-214.28 52.68,-212.69 61.39,-211.03"/>
<polygon fill="#63b8ff" stroke="#63b8ff" points="61.87,-214.5 71.04,-209.2 60.56,-207.63 61.87,-214.5"/>
</a>
</g>
</g>
<!-- Node11 -->
<g id="Node000011" class="node">
<title>Node11</title>
<g id="a_Node000011"><a xlink:href="group___s_p_i___a_s_y_n_c.html#ga5667e88be47d87c48a22117c8a8c3cb5" target="_top" xlink:title="Enfileira um byte para transmissão assíncrona.">
<polygon fill="white" stroke="#666666" points="163.62,-172 77.12,-172 77.12,-152 163.62,-152 163.62,-172"/>
<text xml:space="preserve" text-anchor="middle" x="120.38" y="-158.5" font-family="Helvetica,sans-Serif" font-size="10.00">spi_write_async</text>
</a>
</g>
</g>
<!-- Node1&#45;&gt;Node11 -->
<g id="edge13_Node000001_Node000011" class="edge">
<title>Node1&#45;&gt;Node11</title>
<g id="a_edge13_Node000001_Node000011"><a xlink:title=" ">
<path fill="none" stroke="#63b8ff" d="M32.14,-208.76C42.66,-200.56 58.23,-189.13 73,-181 75.47,-179.64 78.05,-178.32 80.69,-177.06"/>
<polygon fill="#63b8ff" stroke="#63b8ff" points="81.87,-180.36 89.56,-173.07 79,-173.98 81.87,-180.36"/>
</a>
</g>
</g>
<!-- Node16 -->
<g id="Node000016" class="node">
<title>Node16</title>
<g id="a_Node000016"><a xlink:href="example1__master_8c.html#a0c0ca72359ddf28dcd15900dfba19343" target="_top" xlink:title="Inicializa a UART0 a 9600 bps.">
<polygon fill="white" stroke="#666666" points="145.62,-134 95.12,-134 95.12,-114 145.62,-114 145.62,-134"/>
<text xml:space="preserve" text-anchor="middle" x="120.38" y="-120.5" font-family="Helvetica,sans-Serif" font-size="10.00">uart_init</text>
</a>
</g>
</g>
<!-- Node1&#45;&gt;Node16 -->
<g id="edge19_Node000001_Node000016" class="edge">
<title>Node1&#45;&gt;Node16</title>
<g id="a_edge19_Node000001_Node000016"><a xlink:title=" ">
<path fill="none" stroke="#63b8ff" d="M24.31,-208.74C32.3,-192.67 49.79,-161.51 73,-143 76.5,-140.21 80.46,-137.78 84.56,-135.67"/>
<polygon fill="#63b8ff" stroke="#63b8ff" points="85.76,-138.96 93.47,-131.69 82.91,-132.57 85.76,-138.96"/>
</a>
</g>
</g>
<!-- Node17 -->
<g id="Node000017" class="node">
<title>Node17</title>
<g id="a_Node000017"><a xlink:href="example1__master_8c.html#ac0f988e6b39a10eb1b4f67dd657373bb" target="_top" xlink:title="Envia um valor de 8 bits em formato hexadecimal.">
<polygon fill="white" stroke="#666666" points="156.5,-96 84.25,-96 84.25,-76 156.5,-76 156.5,-96"/>
<text xml:space="preserve" text-anchor="middle" x="120.38" y="-82.5" font-family="Helvetica,sans-Serif" font-size="10.00">uart_puthex8</text>
</a>
</g>
</g>
<!-- Node1&#45;&gt;Node17 -->
<g id="edge20_Node000001_Node000017" class="edge">
<title>Node1&#45;&gt;Node17</title>
<g id="a_edge20_Node000001_Node000017"><a xlink:title=" ">
<path fill="none" stroke="#63b8ff" d="M21.66,-208.69C26.78,-186.71 41.64,-134.84 73,-105 74.03,-104.02 75.11,-103.09 76.25,-102.21"/>
<polygon fill="#63b8ff" stroke="#63b8ff" points="77.76,-105.39 84.35,-97.08 74.02,-99.47 77.76,-105.39"/>
</a>
</g>
</g>
<!-- Node19 -->
<g id="Node000019" class="node">
<title>Node19</title>
<g id="a_Node000019"><a xlink:href="example1__master_8c.html#a8baf5eef46e8c97517f7cc1b9c027397" target="_top" xlink:title=" ">
<polygon fill="white" stroke="#666666" points="162.5,-58 78.25,-58 78.25,-38 162.5,-38 162.5,-58"/>
<text xml:space="preserve" text-anchor="middle" x="120.38" y="-44.5" font-family="Helvetica,sans-Serif" font-size="10.00">uart_putnewline</text>
</a>
</g>
</g>
<!-- Node1&#45;&gt;Node19 -->
<g id="edge22_Node000001_Node000019" class="edge">
<title>Node1&#45;&gt;Node19</title>
<g id="a_edge22_Node000001_Node000019"><a xlink:title=" ">
<path fill="none" stroke="#63b8ff" d="M20.28,-208.65C22.85,-181.74 33.29,-108.76 73,-67 73.71,-66.26 74.45,-65.54 75.22,-64.85"/>
<polygon fill="#63b8ff" stroke="#63b8ff" points="76.93,-67.92 83.13,-59.33 72.92,-62.18 76.93,-67.92"/>
</a>
</g>
</g>
<!-- Node20 -->
<g id="Node000020" class="node">
<title>Node20</title>
<g id="a_Node000020"><a xlink:href="example1__master_8c.html#ae52facc0a56086a365bb0018160d8d71" target="_top" xlink:title="Envia uma string via UART.">
<polygon fill="white" stroke="#666666" points="148.62,-20 92.12,-20 92.12,0 148.62,0 148.62,-20"/>
<text xml:space="preserve" text-anchor="middle" x="120.38" y="-6.5" font-family="Helvetica,sans-Serif" font-size="10.00">uart_puts</text>
</a>
</g>
</g>
<!-- Node1&#45;&gt;Node20 -->
<g id="edge24_Node000001_Node000020" class="edge">
<title>Node1&#45;&gt;Node20</title>
<g id="a_edge24_Node000001_Node000020"><a xlink:title=" ">
<path fill="none" stroke="#63b8ff" d="M19.41,-208.9C19.69,-177.94 24.65,-83.22 73,-29 75.49,-26.21 78.45,-23.82 81.66,-21.77"/>
<polygon fill="#63b8ff" stroke="#63b8ff" points="83.1,-24.96 90.42,-17.31 79.92,-18.73 83.1,-24.96"/>
</a>
</g>
</g>
<!-- Node4 -->
<g id="Node000004" class="node">
<title>Node4</title>
<g id="a_Node000004"><a xlink:href="group___s_p_i___i_n_t_e_r_n_a_l___p_r_o_t_o_s.html#ga449cd570fc792c387aacaef5c58a5d67" target="_top" xlink:title="Sincroniza as configurações da struct com os registradores SPCR e SPSR.">
<polygon fill="white" stroke="#666666" points="318.75,-400 212,-400 212,-380 318.75,-380 318.75,-400"/>
<text xml:space="preserve" text-anchor="middle" x="265.38" y="-386.5" font-family="Helvetica,sans-Serif" font-size="10.00">spi_hw_apply_config</text>
</a>
</g>
</g>
<!-- Node3&#45;&gt;Node4 -->
<g id="edge3_Node000003_Node000004" class="edge">
<title>Node3&#45;&gt;Node4</title>
<g id="a_edge3_Node000003_Node000004"><a xlink:title=" ">
<path fill="none" stroke="#63b8ff" d="M144.03,-390C159.25,-390 180.11,-390 200.19,-390"/>
<polygon fill="#63b8ff" stroke="#63b8ff" points="200.04,-393.5 210.04,-390 200.04,-386.5 200.04,-393.5"/>
</a>
</g>
</g>
<!-- Node5 -->
<g id="Node000005" class="node">
<title>Node5</title>
<g id="a_Node000005"><a xlink:href="group___s_p_i___i_n_t_e_r_n_a_l___p_r_o_t_o_s.html#ga63ee202e30ff6afe6667c7155c63aa2d" target="_top" xlink:title="Configura a direção dos pinos físicos (DDR) baseada no modo Master/Slave.">
<polygon fill="white" stroke="#666666" points="309.38,-438 221.38,-438 221.38,-418 309.38,-418 309.38,-438"/>
<text xml:space="preserve" text-anchor="middle" x="265.38" y="-424.5" font-family="Helvetica,sans-Serif" font-size="10.00">spi_hw_init_pins</text>
</a>
</g>
</g>
<!-- Node3&#45;&gt;Node5 -->
<g id="edge4_Node000003_Node000005" class="edge">
<title>Node3&#45;&gt;Node5</title>
<g id="a_edge4_Node000003_Node000005"><a xlink:title=" ">
<path fill="none" stroke="#63b8ff" d="M144.03,-396.02C162.8,-401.01 190.16,-408.28 214.05,-414.63"/>
<polygon fill="#63b8ff" stroke="#63b8ff" points="213.07,-417.99 223.63,-417.17 214.87,-411.22 213.07,-417.99"/>
</a>
</g>
</g>
<!-- Node3&#45;&gt;Node6 -->
<g id="edge5_Node000003_Node000006" class="edge">
<title>Node3&#45;&gt;Node6</title>
<g id="a_edge5_Node000003_Node000006"><a xlink:title=" ">
<path fill="none" stroke="#63b8ff" d="M144.03,-383.98C164.25,-378.61 194.44,-370.58 219.53,-363.92"/>
<polygon fill="#63b8ff" stroke="#63b8ff" points="220.41,-367.3 229.18,-361.35 218.61,-360.54 220.41,-367.3"/>
</a>
</g>
</g>
<!-- Node3&#45;&gt;Node7 -->
<g id="edge6_Node000003_Node000007" class="edge">
<title>Node3&#45;&gt;Node7</title>
<g id="a_edge6_Node000003_Node000007"><a xlink:title=" ">
<path fill="none" stroke="#63b8ff" d="M133.75,-379.64C149.25,-367.1 177.03,-346.06 203.75,-333 208.88,-330.49 214.42,-328.22 219.99,-326.19"/>
<polygon fill="#63b8ff" stroke="#63b8ff" points="220.85,-329.6 229.2,-323.08 218.61,-322.97 220.85,-329.6"/>
</a>
</g>
</g>
<!-- Node8&#45;&gt;Node9 -->
<g id="edge8_Node000008_Node000009" class="edge">
<title>Node8&#45;&gt;Node9</title>
<g id="a_edge8_Node000008_Node000009"><a xlink:title=" ">
<path fill="none" stroke="#63b8ff" d="M154.54,-242.41C171.29,-244.63 192.03,-247.39 210.95,-249.9"/>
<polygon fill="#63b8ff" stroke="#63b8ff" points="210.27,-253.34 220.65,-251.19 211.2,-246.4 210.27,-253.34"/>
</a>
</g>
</g>
<!-- Node12 -->
<g id="Node000012" class="node">
<title>Node12</title>
<g id="a_Node000012"><a xlink:href="group___s_p_i___b_u_f_f_e_r___i_n_t_e_r_n_a_l.html#gababc053045f0c05b31e334632f2dc0fb" target="_top" xlink:title="Calcula o próximo índice do buffer circular.">
<polygon fill="white" stroke="#666666" points="554.75,-191 483.25,-191 483.25,-171 554.75,-171 554.75,-191"/>
<text xml:space="preserve" text-anchor="middle" x="519" y="-177.5" font-family="Helvetica,sans-Serif" font-size="10.00">spi_buf_next</text>
</a>
</g>
</g>
<!-- Node11&#45;&gt;Node12 -->
<g id="edge14_Node000011_Node000012" class="edge">
<title>Node11&#45;&gt;Node12</title>
<g id="a_edge14_Node000011_Node000012"><a xlink:title=" ">
<path fill="none" stroke="#63b8ff" d="M158.38,-172.42C172.46,-175.88 188.73,-179.29 203.75,-181 298.47,-191.78 410.29,-187.85 471.74,-184.26"/>
<polygon fill="#63b8ff" stroke="#63b8ff" points="471.7,-187.77 481.47,-183.67 471.27,-180.78 471.7,-187.77"/>
</a>
</g>
</g>
<!-- Node13 -->
<g id="Node000013" class="node">
<title>Node13</title>
<g id="a_Node000013"><a xlink:href="group___s_p_i___i_n_t_e_r_n_a_l___p_r_o_t_o_s.html#gaf444e00ab7250d625bc670dd4e21328c" target="_top" xlink:title="Baixa o pino de Chip Select do escravo especificado.">
<polygon fill="white" stroke="#666666" points="318.75,-134 212,-134 212,-114 318.75,-114 318.75,-134"/>
<text xml:space="preserve" text-anchor="middle" x="265.38" y="-120.5" font-family="Helvetica,sans-Serif" font-size="10.00">spi_hw_select_slave</text>
</a>
</g>
</g>
<!-- Node11&#45;&gt;Node13 -->
<g id="edge15_Node000011_Node000013" class="edge">
<title>Node11&#45;&gt;Node13</title>
<g id="a_edge15_Node000011_Node000013"><a xlink:title=" ">
<path fill="none" stroke="#63b8ff" d="M160.83,-151.52C177.4,-147.11 196.86,-141.94 214.41,-137.28"/>
<polygon fill="#63b8ff" stroke="#63b8ff" points="214.82,-140.79 223.59,-134.84 213.02,-134.02 214.82,-140.79"/>
</a>
</g>
</g>
<!-- Node14 -->
<g id="Node000014" class="node">
<title>Node14</title>
<g id="a_Node000014"><a xlink:href="group___s_p_i___i_n_t_e_r_n_a_l___p_r_o_t_o_s.html#ga30307a7e6e65f6a80a803d724b09f4f3" target="_top" xlink:title="Inicia o pipeline de transmissão carregando o primeiro byte no SPDR.">
<polygon fill="white" stroke="#666666" points="327,-172 203.75,-172 203.75,-152 327,-152 327,-172"/>
<text xml:space="preserve" text-anchor="middle" x="265.38" y="-158.5" font-family="Helvetica,sans-Serif" font-size="10.00">spi_hw_start_tx_pipeline</text>
</a>
</g>
</g>
<!-- Node11&#45;&gt;Node14 -->
<g id="edge16_Node000011_Node000014" class="edge">
<title>Node11&#45;&gt;Node14</title>
<g id="a_edge16_Node000011_Node000014"><a xlink:title=" ">
<path fill="none" stroke="#63b8ff" d="M163.89,-162C172.83,-162 182.49,-162 192.17,-162"/>
<polygon fill="#63b8ff" stroke="#63b8ff" points="191.98,-165.5 201.98,-162 191.98,-158.5 191.98,-165.5"/>
</a>
</g>
</g>
<!-- Node15 -->
<g id="Node000015" class="node">
<title>Node15</title>
<g id="a_Node000015"><a xlink:href="group___s_p_i___b_u_f_f_e_r___i_n_t_e_r_n_a_l.html#ga9eb832ea6e4deb5d067f69c9192b0b32" target="_top" xlink:title="Remove um byte da fila de transmissão.">
<polygon fill="white" stroke="#666666" points="447.25,-172 363,-172 363,-152 447.25,-152 447.25,-172"/>
<text xml:space="preserve" text-anchor="middle" x="405.12" y="-158.5" font-family="Helvetica,sans-Serif" font-size="10.00">spi_tx_dequeue</text>
</a>
</g>
</g>
<!-- Node14&#45;&gt;Node15 -->
<g id="edge17_Node000014_Node000015" class="edge">
<title>Node14&#45;&gt;Node15</title>
<g id="a_edge17_Node000014_Node000015"><a xlink:title=" ">
<path fill="none" stroke="#63b8ff" d="M327.2,-162C335.23,-162 343.42,-162 351.31,-162"/>
<polygon fill="#63b8ff" stroke="#63b8ff" points="351.09,-165.5 361.09,-162 351.09,-158.5 351.09,-165.5"/>
</a>
</g>
</g>
<!-- Node15&#45;&gt;Node12 -->
<g id="edge18_Node000015_Node000012" class="edge">
<title>Node15&#45;&gt;Node12</title>
<g id="a_edge18_Node000015_Node000012"><a xlink:title=" ">
<path fill="none" stroke="#63b8ff" d="M447.47,-169.02C455.42,-170.37 463.8,-171.79 471.89,-173.17"/>
<polygon fill="#63b8ff" stroke="#63b8ff" points="471.13,-176.59 481.58,-174.81 472.3,-169.69 471.13,-176.59"/>
</a>
</g>
</g>
<!-- Node18 -->
<g id="Node000018" class="node">
<title>Node18</title>
<g id="a_Node000018"><a xlink:href="example1__master_8c.html#aa599232c1438c5addd971e05e1dd46a2" target="_top" xlink:title="Envia um caractere via UART.">
<polygon fill="white" stroke="#666666" points="293.62,-58 237.12,-58 237.12,-38 293.62,-38 293.62,-58"/>
<text xml:space="preserve" text-anchor="middle" x="265.38" y="-44.5" font-family="Helvetica,sans-Serif" font-size="10.00">uart_putc</text>
</a>
</g>
</g>
<!-- Node17&#45;&gt;Node18 -->
<g id="edge21_Node000017_Node000018" class="edge">
<title>Node17&#45;&gt;Node18</title>
<g id="a_edge21_Node000017_Node000018"><a xlink:title=" ">
<path fill="none" stroke="#63b8ff" d="M156.72,-76.61C177.76,-71.02 204.45,-63.92 226,-58.2"/>
<polygon fill="#63b8ff" stroke="#63b8ff" points="226.82,-61.6 235.59,-55.65 225.03,-54.84 226.82,-61.6"/>
</a>
</g>
</g>
<!-- Node19&#45;&gt;Node18 -->
<g id="edge23_Node000019_Node000018" class="edge">
<title>Node19&#45;&gt;Node18</title>
<g id="a_edge23_Node000019_Node000018"><a xlink:title=" ">
<path fill="none" stroke="#63b8ff" d="M162.74,-48C182.41,-48 205.81,-48 225.19,-48"/>
<polygon fill="#63b8ff" stroke="#63b8ff" points="225.16,-51.5 235.16,-48 225.16,-44.5 225.16,-51.5"/>
</a>
</g>
</g>
<!-- Node20&#45;&gt;Node18 -->
<g id="edge25_Node000020_Node000018" class="edge">
<title>Node20&#45;&gt;Node18</title>
<g id="a_edge25_Node000020_Node000018"><a xlink:title=" ">
<path fill="none" stroke="#63b8ff" d="M148.95,-17.33C170.81,-23.14 201.61,-31.32 225.9,-37.78"/>
<polygon fill="#63b8ff" stroke="#63b8ff" points="224.86,-41.12 235.43,-40.31 226.66,-34.36 224.86,-41.12"/>
</a>
</g>
</g>
</g>
</svg>
