<?xml version="1.0" encoding="UTF-8" standalone="no"?>
<!DOCTYPE svg PUBLIC "-//W3C//DTD SVG 1.1//EN"
 "http://www.w3.org/Graphics/SVG/1.1/DTD/svg11.dtd">
<!-- Generated by graphviz version 14.1.4 (20260321.0153)
 -->
<!-- Title: spi_tx_available Pages: 1 -->
<svg width="337pt" height="104pt"
 viewBox="0.00 0.00 337.00 104.00" xmlns="http://www.w3.org/2000/svg" xmlns:xlink="http://www.w3.org/1999/xlink">
<g id="graph0" class="graph" transform="scale(1 1) rotate(0) translate(4 100)">
<title>spi_tx_available</title>
<!-- Node1 -->
<g id="Node000001" class="node">
<title>Node1</title>
<g id="a_Node000001"><a xlink:title="Verifica o espaço pendente no buffer de transmissão.">
<polygon fill="#999999" stroke="#666666" points="328.5,-58 242.75,-58 242.75,-38 328.5,-38 328.5,-58"/>
<text xml:space="preserve" text-anchor="middle" x="285.62" y="-44.5" font-family="Helvetica,sans-Serif" font-size="10.00">spi_tx_available</text>
</a>
</g>
</g>
<!-- Node2 -->
<g id="Node000002" class="node">
<title>Node2</title>
<g id="a_Node000002"><a xlink:href="example3_8c.html#a840291bc02cba5474a4cb46a9b9566fe" target="_top" xlink:title="Ponto de entrada do teste de estresse.">
<polygon fill="white" stroke="#666666" points="177.88,-96 140.88,-96 140.88,-76 177.88,-76 177.88,-96"/>
<text xml:space="preserve" text-anchor="middle" x="159.38" y="-82.5" font-family="Helvetica,sans-Serif" font-size="10.00">main</text>
</a>
</g>
</g>
<!-- Node1&#45;&gt;Node2 -->
<g id="edge1_Node000001_Node000002" class="edge">
<title>Node1&#45;&gt;Node2</title>
<g id="a_edge1_Node000001_Node000002"><a xlink:title=" ">
<path fill="none" stroke="#63b8ff" d="M239.54,-61.79C218.25,-68.3 194.07,-75.69 178.1,-80.58"/>
<polygon fill="#63b8ff" stroke="#63b8ff" points="240.36,-65.2 248.9,-58.93 238.31,-58.5 240.36,-65.2"/>
</a>
</g>
</g>
<!-- Node3 -->
<g id="Node000003" class="node">
<title>Node3</title>
<g id="a_Node000003"><a xlink:href="group___s_p_i___a_s_y_n_c.html#gaa9fa3d0d9a19bee52b8b2b89e7739ff2" target="_top" xlink:title="Verifica se o módulo está processando alguma transmissão.">
<polygon fill="white" stroke="#666666" points="193.25,-58 125.5,-58 125.5,-38 193.25,-38 193.25,-58"/>
<text xml:space="preserve" text-anchor="middle" x="159.38" y="-44.5" font-family="Helvetica,sans-Serif" font-size="10.00">spi_is_busy</text>
</a>
</g>
</g>
<!-- Node1&#45;&gt;Node3 -->
<g id="edge2_Node000001_Node000003" class="edge">
<title>Node1&#45;&gt;Node3</title>
<g id="a_edge2_Node000001_Node000003"><a xlink:title=" ">
<path fill="none" stroke="#63b8ff" d="M231.4,-48C218.48,-48 205.04,-48 193.37,-48"/>
<polygon fill="#63b8ff" stroke="#63b8ff" points="231.05,-51.5 241.05,-48 231.05,-44.5 231.05,-51.5"/>
</a>
</g>
</g>
<!-- Node6 -->
<g id="Node000006" class="node">
<title>Node6</title>
<g id="a_Node000006"><a xlink:href="group___s_p_i___l_o_w_l_e_v_e_l.html#gabf331ee9e740be966eb93ce34fbff366" target="_top" xlink:title="Verifica se há espaço para uma quantidade específica de bytes no TX.">
<polygon fill="white" stroke="#666666" points="206.75,-20 112,-20 112,0 206.75,0 206.75,-20"/>
<text xml:space="preserve" text-anchor="middle" x="159.38" y="-6.5" font-family="Helvetica,sans-Serif" font-size="10.00">spi_tx_has_space</text>
</a>
</g>
</g>
<!-- Node1&#45;&gt;Node6 -->
<g id="edge5_Node000001_Node000006" class="edge">
<title>Node1&#45;&gt;Node6</title>
<g id="a_edge5_Node000001_Node000006"><a xlink:title=" ">
<path fill="none" stroke="#63b8ff" d="M239.36,-34.16C224.56,-29.63 208.38,-24.68 194.54,-20.45"/>
<polygon fill="#63b8ff" stroke="#63b8ff" points="238.31,-37.5 248.9,-37.07 240.36,-30.8 238.31,-37.5"/>
</a>
</g>
</g>
<!-- Node4 -->
<g id="Node000004" class="node">
<title>Node4</title>
<g id="a_Node000004"><a xlink:href="example1__master_8c.html#a840291bc02cba5474a4cb46a9b9566fe" target="_top" xlink:title="Ponto de entrada do exemplo Master.">
<polygon fill="white" stroke="#666666" points="56.5,-77 19.5,-77 19.5,-57 56.5,-57 56.5,-77"/>
<text xml:space="preserve" text-anchor="middle" x="38" y="-63.5" font-family="Helvetica,sans-Serif" font-size="10.00">main</text>
</a>
</g>
</g>
<!-- Node3&#45;&gt;Node4 -->
<g id="edge3_Node000003_Node000004" class="edge">
<title>Node3&#45;&gt;Node4</title>
<g id="a_edge3_Node000003_Node000004"><a xlink:title=" ">
<path fill="none" stroke="#63b8ff" d="M113.84,-55.09C94.09,-58.23 71.97,-61.75 56.94,-64.15"/>
<polygon fill="#63b8ff" stroke="#63b8ff" points="114.3,-58.56 123.63,-53.53 113.2,-51.65 114.3,-58.56"/>
</a>
</g>
</g>
<!-- Node5 -->
<g id="Node000005" class="node">
<title>Node5</title>
<g id="a_Node000005"><a xlink:href="group___s_p_i___i_n_i_t.html#ga94336ad392aba5ff1c163cf8127a1477" target="_top" xlink:title="Altera dinamicamente o divisor de clock do SPI.">
<polygon fill="white" stroke="#666666" points="76,-39 0,-39 0,-19 76,-19 76,-39"/>
<text xml:space="preserve" text-anchor="middle" x="38" y="-25.5" font-family="Helvetica,sans-Serif" font-size="10.00">spi_set_clock</text>
</a>
</g>
</g>
<!-- Node3&#45;&gt;Node5 -->
<g id="edge4_Node000003_Node000005" class="edge">
<title>Node3&#45;&gt;Node5</title>
<g id="a_edge4_Node000003_Node000005"><a xlink:title=" ">
<path fill="none" stroke="#63b8ff" d="M114.05,-40.94C101.62,-38.97 88.25,-36.84 76.27,-34.93"/>
<polygon fill="#63b8ff" stroke="#63b8ff" points="113.2,-44.35 123.63,-42.47 114.3,-37.44 113.2,-44.35"/>
</a>
</g>
</g>
</g>
</svg>
