<?xml version="1.0" encoding="UTF-8" standalone="no"?>
<!DOCTYPE svg PUBLIC "-//W3C//DTD SVG 1.1//EN"
 "http://www.w3.org/Graphics/SVG/1.1/DTD/svg11.dtd">
<!-- Generated by graphviz version 14.1.4 (20260321.0153)
 -->
<!-- Title: spi_hw_select_slave Pages: 1 -->
<svg width="435pt" height="66pt"
 viewBox="0.00 0.00 435.00 66.00" xmlns="http://www.w3.org/2000/svg" xmlns:xlink="http://www.w3.org/1999/xlink">
<g id="graph0" class="graph" transform="scale(1 1) rotate(0) translate(4 62)">
<title>spi_hw_select_slave</title>
<!-- Node1 -->
<g id="Node000001" class="node">
<title>Node1</title>
<g id="a_Node000001"><a xlink:title="Controle de hardware para Chip Select.">
<polygon fill="#999999" stroke="#666666" points="427,-39 320.25,-39 320.25,-19 427,-19 427,-39"/>
<text xml:space="preserve" text-anchor="middle" x="373.62" y="-25.5" font-family="Helvetica,sans-Serif" font-size="10.00">spi_hw_select_slave</text>
</a>
</g>
</g>
<!-- Node2 -->
<g id="Node000002" class="node">
<title>Node2</title>
<g id="a_Node000002"><a xlink:href="group___s_p_i___m_a_s_t_e_r.html#gab2d834030e3fe4c4ffc10253b35882e3" target="_top" xlink:title="Seleciona um dispositivo escravo (coloca CS em nível baixo).">
<polygon fill="white" stroke="#666666" points="284.25,-58 190.25,-58 190.25,-38 284.25,-38 284.25,-58"/>
<text xml:space="preserve" text-anchor="middle" x="237.25" y="-44.5" font-family="Helvetica,sans-Serif" font-size="10.00">spi_select_device</text>
</a>
</g>
</g>
<!-- Node1&#45;&gt;Node2 -->
<g id="edge1_Node000001_Node000002" class="edge">
<title>Node1&#45;&gt;Node2</title>
<g id="a_edge1_Node000001_Node000002"><a xlink:title=" ">
<path fill="none" stroke="#63b8ff" d="M308.6,-38.05C300.54,-39.19 292.43,-40.34 284.71,-41.43"/>
<polygon fill="#63b8ff" stroke="#63b8ff" points="308.99,-41.53 318.4,-36.67 308.01,-34.6 308.99,-41.53"/>
</a>
</g>
</g>
<!-- Node4 -->
<g id="Node000004" class="node">
<title>Node4</title>
<g id="a_Node000004"><a xlink:href="group___s_p_i___a_s_y_n_c.html#ga5667e88be47d87c48a22117c8a8c3cb5" target="_top" xlink:title="Enfileira um byte para transmissão assíncrona.">
<polygon fill="white" stroke="#666666" points="280.5,-20 194,-20 194,0 280.5,0 280.5,-20"/>
<text xml:space="preserve" text-anchor="middle" x="237.25" y="-6.5" font-family="Helvetica,sans-Serif" font-size="10.00">spi_write_async</text>
</a>
</g>
</g>
<!-- Node1&#45;&gt;Node4 -->
<g id="edge3_Node000001_Node000004" class="edge">
<title>Node1&#45;&gt;Node4</title>
<g id="a_edge3_Node000001_Node000004"><a xlink:title=" ">
<path fill="none" stroke="#63b8ff" d="M308.54,-19.94C299.15,-18.61 289.69,-17.27 280.87,-16.03"/>
<polygon fill="#63b8ff" stroke="#63b8ff" points="308.01,-23.4 318.4,-21.33 308.99,-16.47 308.01,-23.4"/>
</a>
</g>
</g>
<!-- Node3 -->
<g id="Node000003" class="node">
<title>Node3</title>
<g id="a_Node000003"><a xlink:href="example1__master_8c.html#a840291bc02cba5474a4cb46a9b9566fe" target="_top" xlink:title="Ponto de entrada do exemplo Master.">
<polygon fill="white" stroke="#666666" points="132.12,-58 95.12,-58 95.12,-38 132.12,-38 132.12,-58"/>
<text xml:space="preserve" text-anchor="middle" x="113.62" y="-44.5" font-family="Helvetica,sans-Serif" font-size="10.00">main</text>
</a>
</g>
</g>
<!-- Node2&#45;&gt;Node3 -->
<g id="edge2_Node000002_Node000003" class="edge">
<title>Node2&#45;&gt;Node3</title>
<g id="a_edge2_Node000002_Node000003"><a xlink:title=" ">
<path fill="none" stroke="#63b8ff" d="M178.5,-48C161.83,-48 144.86,-48 132.61,-48"/>
<polygon fill="#63b8ff" stroke="#63b8ff" points="178.41,-51.5 188.41,-48 178.41,-44.5 178.41,-51.5"/>
</a>
</g>
</g>
<!-- Node4&#45;&gt;Node3 -->
<g id="edge4_Node000004_Node000003" class="edge">
<title>Node4&#45;&gt;Node3</title>
<g id="a_edge4_Node000004_Node000003"><a xlink:title=" ">
<path fill="none" stroke="#63b8ff" d="M191.89,-23.86C171.26,-30.3 147.9,-37.61 132.31,-42.47"/>
<polygon fill="#63b8ff" stroke="#63b8ff" points="192.75,-27.26 201.25,-20.94 190.66,-20.58 192.75,-27.26"/>
</a>
</g>
</g>
<!-- Node5 -->
<g id="Node000005" class="node">
<title>Node5</title>
<g id="a_Node000005"><a xlink:href="group___s_p_i___a_s_y_n_c.html#ga7c5cd5d59e430d3366bb96ef93c417a9" target="_top" xlink:title="Inicia uma transação multi&#45;byte assíncrona.">
<polygon fill="white" stroke="#666666" points="154.25,-20 73,-20 73,0 154.25,0 154.25,-20"/>
<text xml:space="preserve" text-anchor="middle" x="113.62" y="-6.5" font-family="Helvetica,sans-Serif" font-size="10.00">spi_write_multi</text>
</a>
</g>
</g>
<!-- Node4&#45;&gt;Node5 -->
<g id="edge5_Node000004_Node000005" class="edge">
<title>Node4&#45;&gt;Node5</title>
<g id="a_edge5_Node000004_Node000005"><a xlink:title=" ">
<path fill="none" stroke="#63b8ff" d="M182.43,-10C173.04,-10 163.42,-10 154.49,-10"/>
<polygon fill="#63b8ff" stroke="#63b8ff" points="182.2,-13.5 192.2,-10 182.2,-6.5 182.2,-13.5"/>
</a>
</g>
</g>
<!-- Node6 -->
<g id="Node000006" class="node">
<title>Node6</title>
<g id="a_Node000006"><a xlink:href="example2_8c.html#a840291bc02cba5474a4cb46a9b9566fe" target="_top" xlink:title="Ponto de entrada do exemplo DAC.">
<polygon fill="white" stroke="#666666" points="37,-20 0,-20 0,0 37,0 37,-20"/>
<text xml:space="preserve" text-anchor="middle" x="18.5" y="-6.5" font-family="Helvetica,sans-Serif" font-size="10.00">main</text>
</a>
</g>
</g>
<!-- Node5&#45;&gt;Node6 -->
<g id="edge6_Node000005_Node000006" class="edge">
<title>Node5&#45;&gt;Node6</title>
<g id="a_edge6_Node000005_Node000006"><a xlink:title=" ">
<path fill="none" stroke="#63b8ff" d="M61.16,-10C52.49,-10 44.05,-10 37.06,-10"/>
<polygon fill="#63b8ff" stroke="#63b8ff" points="61.08,-13.5 71.08,-10 61.08,-6.5 61.08,-13.5"/>
</a>
</g>
</g>
</g>
</svg>
