<?xml version="1.0" encoding="UTF-8" standalone="no"?>
<!DOCTYPE svg PUBLIC "-//W3C//DTD SVG 1.1//EN"
 "http://www.w3.org/Graphics/SVG/1.1/DTD/svg11.dtd">
<!-- Generated by graphviz version 14.1.4 (20260321.0153)
 -->
<!-- Title: spi_write_async Pages: 1 -->
<svg width="482pt" height="80pt"
 viewBox="0.00 0.00 482.00 80.00" xmlns="http://www.w3.org/2000/svg" xmlns:xlink="http://www.w3.org/1999/xlink">
<g id="graph0" class="graph" transform="scale(1 1) rotate(0) translate(4 75.61)">
<title>spi_write_async</title>
<!-- Node1 -->
<g id="Node000001" class="node">
<title>Node1</title>
<g id="a_Node000001"><a xlink:title="Enfileira um byte para transmissão assíncrona.">
<polygon fill="#999999" stroke="#666666" points="86.5,-58 0,-58 0,-38 86.5,-38 86.5,-58"/>
<text xml:space="preserve" text-anchor="middle" x="43.25" y="-44.5" font-family="Helvetica,sans-Serif" font-size="10.00">spi_write_async</text>
</a>
</g>
</g>
<!-- Node2 -->
<g id="Node000002" class="node">
<title>Node2</title>
<g id="a_Node000002"><a xlink:href="group___s_p_i___b_u_f_f_e_r___i_n_t_e_r_n_a_l.html#gababc053045f0c05b31e334632f2dc0fb" target="_top" xlink:title="Calcula o próximo índice do buffer circular.">
<polygon fill="white" stroke="#666666" points="473.5,-58 402,-58 402,-38 473.5,-38 473.5,-58"/>
<text xml:space="preserve" text-anchor="middle" x="437.75" y="-44.5" font-family="Helvetica,sans-Serif" font-size="10.00">spi_buf_next</text>
</a>
</g>
</g>
<!-- Node1&#45;&gt;Node2 -->
<g id="edge1_Node000001_Node000002" class="edge">
<title>Node1&#45;&gt;Node2</title>
<g id="a_edge1_Node000001_Node000002"><a xlink:title=" ">
<path fill="none" stroke="#63b8ff" d="M79.37,-58.41C92.74,-61.88 108.2,-65.29 122.5,-67 217.33,-78.35 329.11,-65.35 390.53,-55.96"/>
<polygon fill="#63b8ff" stroke="#63b8ff" points="390.92,-59.44 400.26,-54.43 389.84,-52.52 390.92,-59.44"/>
</a>
</g>
</g>
<!-- Node3 -->
<g id="Node000003" class="node">
<title>Node3</title>
<g id="a_Node000003"><a xlink:href="group___s_p_i___i_n_t_e_r_n_a_l___p_r_o_t_o_s.html#gaf444e00ab7250d625bc670dd4e21328c" target="_top" xlink:title="Baixa o pino de Chip Select do escravo especificado.">
<polygon fill="white" stroke="#666666" points="237.5,-58 130.75,-58 130.75,-38 237.5,-38 237.5,-58"/>
<text xml:space="preserve" text-anchor="middle" x="184.12" y="-44.5" font-family="Helvetica,sans-Serif" font-size="10.00">spi_hw_select_slave</text>
</a>
</g>
</g>
<!-- Node1&#45;&gt;Node3 -->
<g id="edge2_Node000001_Node000003" class="edge">
<title>Node1&#45;&gt;Node3</title>
<g id="a_edge2_Node000001_Node000003"><a xlink:title=" ">
<path fill="none" stroke="#63b8ff" d="M86.67,-48C96.91,-48 108.08,-48 119.07,-48"/>
<polygon fill="#63b8ff" stroke="#63b8ff" points="118.9,-51.5 128.9,-48 118.9,-44.5 118.9,-51.5"/>
</a>
</g>
</g>
<!-- Node4 -->
<g id="Node000004" class="node">
<title>Node4</title>
<g id="a_Node000004"><a xlink:href="group___s_p_i___i_n_t_e_r_n_a_l___p_r_o_t_o_s.html#ga30307a7e6e65f6a80a803d724b09f4f3" target="_top" xlink:title="Inicia o pipeline de transmissão carregando o primeiro byte no SPDR.">
<polygon fill="white" stroke="#666666" points="245.75,-20 122.5,-20 122.5,0 245.75,0 245.75,-20"/>
<text xml:space="preserve" text-anchor="middle" x="184.12" y="-6.5" font-family="Helvetica,sans-Serif" font-size="10.00">spi_hw_start_tx_pipeline</text>
</a>
</g>
</g>
<!-- Node1&#45;&gt;Node4 -->
<g id="edge3_Node000001_Node000004" class="edge">
<title>Node1&#45;&gt;Node4</title>
<g id="a_edge3_Node000001_Node000004"><a xlink:title=" ">
<path fill="none" stroke="#63b8ff" d="M82.57,-37.52C98.5,-33.15 117.2,-28.04 134.12,-23.41"/>
<polygon fill="#63b8ff" stroke="#63b8ff" points="134.75,-26.86 143.47,-20.85 132.91,-20.11 134.75,-26.86"/>
</a>
</g>
</g>
<!-- Node5 -->
<g id="Node000005" class="node">
<title>Node5</title>
<g id="a_Node000005"><a xlink:href="group___s_p_i___b_u_f_f_e_r___i_n_t_e_r_n_a_l.html#ga9eb832ea6e4deb5d067f69c9192b0b32" target="_top" xlink:title="Remove um byte da fila de transmissão.">
<polygon fill="white" stroke="#666666" points="366,-39 281.75,-39 281.75,-19 366,-19 366,-39"/>
<text xml:space="preserve" text-anchor="middle" x="323.88" y="-25.5" font-family="Helvetica,sans-Serif" font-size="10.00">spi_tx_dequeue</text>
</a>
</g>
</g>
<!-- Node4&#45;&gt;Node5 -->
<g id="edge4_Node000004_Node000005" class="edge">
<title>Node4&#45;&gt;Node5</title>
<g id="a_edge4_Node000004_Node000005"><a xlink:title=" ">
<path fill="none" stroke="#63b8ff" d="M245.95,-18.39C253.98,-19.5 262.17,-20.63 270.06,-21.72"/>
<polygon fill="#63b8ff" stroke="#63b8ff" points="269.47,-25.17 279.85,-23.07 270.43,-18.23 269.47,-25.17"/>
</a>
</g>
</g>
<!-- Node5&#45;&gt;Node2 -->
<g id="edge5_Node000005_Node000002" class="edge">
<title>Node5&#45;&gt;Node2</title>
<g id="a_edge5_Node000005_Node000002"><a xlink:title=" ">
<path fill="none" stroke="#63b8ff" d="M366.22,-36.02C374.17,-37.37 382.55,-38.79 390.64,-40.17"/>
<polygon fill="#63b8ff" stroke="#63b8ff" points="389.88,-43.59 400.33,-41.81 391.05,-36.69 389.88,-43.59"/>
</a>
</g>
</g>
</g>
</svg>
