<?xml version="1.0" encoding="UTF-8" standalone="no"?>
<!DOCTYPE svg PUBLIC "-//W3C//DTD SVG 1.1//EN"
 "http://www.w3.org/Graphics/SVG/1.1/DTD/svg11.dtd">
<!-- Generated by graphviz version 14.1.4 (20260321.0153)
 -->
<!-- Title: spi_is_busy Pages: 1 -->
<svg width="188pt" height="66pt"
 viewBox="0.00 0.00 188.00 66.00" xmlns="http://www.w3.org/2000/svg" xmlns:xlink="http://www.w3.org/1999/xlink">
<g id="graph0" class="graph" transform="scale(1 1) rotate(0) translate(4 62)">
<title>spi_is_busy</title>
<!-- Node1 -->
<g id="Node000001" class="node">
<title>Node1</title>
<g id="a_Node000001"><a xlink:title="Verifica se o módulo está processando alguma transmissão.">
<polygon fill="#999999" stroke="#666666" points="179.75,-39 112,-39 112,-19 179.75,-19 179.75,-39"/>
<text xml:space="preserve" text-anchor="middle" x="145.88" y="-25.5" font-family="Helvetica,sans-Serif" font-size="10.00">spi_is_busy</text>
</a>
</g>
</g>
<!-- Node2 -->
<g id="Node000002" class="node">
<title>Node2</title>
<g id="a_Node000002"><a xlink:href="example1__master_8c.html#a840291bc02cba5474a4cb46a9b9566fe" target="_top" xlink:title="Ponto de entrada do exemplo Master.">
<polygon fill="white" stroke="#666666" points="56.5,-58 19.5,-58 19.5,-38 56.5,-38 56.5,-58"/>
<text xml:space="preserve" text-anchor="middle" x="38" y="-44.5" font-family="Helvetica,sans-Serif" font-size="10.00">main</text>
</a>
</g>
</g>
<!-- Node1&#45;&gt;Node2 -->
<g id="edge1_Node000001_Node000002" class="edge">
<title>Node1&#45;&gt;Node2</title>
<g id="a_edge1_Node000001_Node000002"><a xlink:title=" ">
<path fill="none" stroke="#63b8ff" d="M100.67,-36.93C85.21,-39.71 68.73,-42.66 56.7,-44.82"/>
<polygon fill="#63b8ff" stroke="#63b8ff" points="100.95,-40.44 110.18,-35.23 99.72,-33.55 100.95,-40.44"/>
</a>
</g>
</g>
<!-- Node3 -->
<g id="Node000003" class="node">
<title>Node3</title>
<g id="a_Node000003"><a xlink:href="group___s_p_i___i_n_i_t.html#ga94336ad392aba5ff1c163cf8127a1477" target="_top" xlink:title="Altera dinamicamente o divisor de clock do SPI.">
<polygon fill="white" stroke="#666666" points="76,-20 0,-20 0,0 76,0 76,-20"/>
<text xml:space="preserve" text-anchor="middle" x="38" y="-6.5" font-family="Helvetica,sans-Serif" font-size="10.00">spi_set_clock</text>
</a>
</g>
</g>
<!-- Node1&#45;&gt;Node3 -->
<g id="edge2_Node000001_Node000003" class="edge">
<title>Node1&#45;&gt;Node3</title>
<g id="a_edge2_Node000001_Node000003"><a xlink:title=" ">
<path fill="none" stroke="#63b8ff" d="M100.48,-21.03C92.38,-19.58 84.01,-18.08 76.14,-16.67"/>
<polygon fill="#63b8ff" stroke="#63b8ff" points="99.72,-24.45 110.18,-22.77 100.95,-17.56 99.72,-24.45"/>
</a>
</g>
</g>
</g>
</svg>
