<?xml version="1.0" encoding="UTF-8" standalone="no"?>
<!DOCTYPE svg PUBLIC "-//W3C//DTD SVG 1.1//EN"
 "http://www.w3.org/Graphics/SVG/1.1/DTD/svg11.dtd">
<!-- Generated by graphviz version 14.1.4 (20260321.0153)
 -->
<!-- Title: inc/spi.h Pages: 1 -->
<svg width="196pt" height="140pt"
 viewBox="0.00 0.00 196.00 140.00" xmlns="http://www.w3.org/2000/svg" xmlns:xlink="http://www.w3.org/1999/xlink">
<g id="graph0" class="graph" transform="scale(1 1) rotate(0) translate(4 136)">
<title>inc/spi.h</title>
<!-- Node1 -->
<g id="Node000001" class="node">
<title>Node1</title>
<g id="a_Node000001"><a xlink:title="Interface pública (API) da biblioteca SPI para microcontroladores AVR.">
<polygon fill="#999999" stroke="#666666" points="116.5,-132 63.75,-132 63.75,-112 116.5,-112 116.5,-132"/>
<text xml:space="preserve" text-anchor="middle" x="90.12" y="-118.5" font-family="Helvetica,sans-Serif" font-size="10.00">inc/spi.h</text>
</a>
</g>
</g>
<!-- Node2 -->
<g id="Node000002" class="node">
<title>Node2</title>
<g id="a_Node000002"><a xlink:title=" ">
<polygon fill="#e0e0e0" stroke="#999999" points="48.25,-20 0,-20 0,0 48.25,0 48.25,-20"/>
<text xml:space="preserve" text-anchor="middle" x="24.12" y="-6.5" font-family="Helvetica,sans-Serif" font-size="10.00">stdint.h</text>
</a>
</g>
</g>
<!-- Node1&#45;&gt;Node2 -->
<g id="edge1_Node000001_Node000002" class="edge">
<title>Node1&#45;&gt;Node2</title>
<g id="a_edge1_Node000001_Node000002"><a xlink:title=" ">
<path fill="none" stroke="#63b8ff" d="M79.18,-111.6C69.86,-103.1 56.65,-89.83 48.12,-76 39.52,-62.04 33.28,-44.53 29.32,-31.19"/>
<polygon fill="#63b8ff" stroke="#63b8ff" points="32.76,-30.51 26.73,-21.81 26.02,-32.38 32.76,-30.51"/>
</a>
</g>
</g>
<!-- Node3 -->
<g id="Node000003" class="node">
<title>Node3</title>
<g id="a_Node000003"><a xlink:title=" ">
<polygon fill="#e0e0e0" stroke="#999999" points="188,-20 132.25,-20 132.25,0 188,0 188,-20"/>
<text xml:space="preserve" text-anchor="middle" x="160.12" y="-6.5" font-family="Helvetica,sans-Serif" font-size="10.00">stdbool.h</text>
</a>
</g>
</g>
<!-- Node1&#45;&gt;Node3 -->
<g id="edge2_Node000001_Node000003" class="edge">
<title>Node1&#45;&gt;Node3</title>
<g id="a_edge2_Node000001_Node000003"><a xlink:title=" ">
<path fill="none" stroke="#63b8ff" d="M100.53,-111.82C109.75,-103.26 123.12,-89.78 132.12,-76 141.29,-61.98 148.63,-44.47 153.49,-31.15"/>
<polygon fill="#63b8ff" stroke="#63b8ff" points="156.78,-32.35 156.75,-21.76 150.17,-30.06 156.78,-32.35"/>
</a>
</g>
</g>
<!-- Node4 -->
<g id="Node000004" class="node">
<title>Node4</title>
<g id="a_Node000004"><a xlink:href="spi__types_8h.html" target="_top" xlink:title="Definições de tipos, enums e estruturas para a biblioteca SPI.">
<polygon fill="white" stroke="#666666" points="123.25,-76 57,-76 57,-56 123.25,-56 123.25,-76"/>
<text xml:space="preserve" text-anchor="middle" x="90.12" y="-62.5" font-family="Helvetica,sans-Serif" font-size="10.00">spi_types.h</text>
</a>
</g>
</g>
<!-- Node1&#45;&gt;Node4 -->
<g id="edge3_Node000001_Node000004" class="edge">
<title>Node1&#45;&gt;Node4</title>
<g id="a_edge3_Node000001_Node000004"><a xlink:title=" ">
<path fill="none" stroke="#63b8ff" d="M90.12,-111.59C90.12,-105.01 90.12,-95.96 90.12,-87.73"/>
<polygon fill="#63b8ff" stroke="#63b8ff" points="93.63,-87.81 90.13,-77.81 86.63,-87.81 93.63,-87.81"/>
</a>
</g>
</g>
<!-- Node4&#45;&gt;Node2 -->
<g id="edge4_Node000004_Node000002" class="edge">
<title>Node4&#45;&gt;Node2</title>
<g id="a_edge4_Node000004_Node000002"><a xlink:title=" ">
<path fill="none" stroke="#63b8ff" d="M78.63,-55.59C69.16,-47.85 55.52,-36.69 44.25,-27.47"/>
<polygon fill="#63b8ff" stroke="#63b8ff" points="46.62,-24.88 36.66,-21.26 42.18,-30.3 46.62,-24.88"/>
</a>
</g>
</g>
<!-- Node4&#45;&gt;Node3 -->
<g id="edge5_Node000004_Node000003" class="edge">
<title>Node4&#45;&gt;Node3</title>
<g id="a_edge5_Node000004_Node000003"><a xlink:title=" ">
<path fill="none" stroke="#63b8ff" d="M102.32,-55.59C112.46,-47.77 127.12,-36.46 139.14,-27.19"/>
<polygon fill="#63b8ff" stroke="#63b8ff" points="141.09,-30.1 146.87,-21.22 136.82,-24.56 141.09,-30.1"/>
</a>
</g>
</g>
<!-- Node5 -->
<g id="Node000005" class="node">
<title>Node5</title>
<g id="a_Node000005"><a xlink:title=" ">
<polygon fill="#e0e0e0" stroke="#999999" points="114.25,-20 66,-20 66,0 114.25,0 114.25,-20"/>
<text xml:space="preserve" text-anchor="middle" x="90.12" y="-6.5" font-family="Helvetica,sans-Serif" font-size="10.00">avr/io.h</text>
</a>
</g>
</g>
<!-- Node4&#45;&gt;Node5 -->
<g id="edge6_Node000004_Node000005" class="edge">
<title>Node4&#45;&gt;Node5</title>
<g id="a_edge6_Node000004_Node000005"><a xlink:title=" ">
<path fill="none" stroke="#63b8ff" d="M90.12,-55.59C90.12,-49.01 90.12,-39.96 90.12,-31.73"/>
<polygon fill="#63b8ff" stroke="#63b8ff" points="93.63,-31.81 90.13,-21.81 86.63,-31.81 93.63,-31.81"/>
</a>
</g>
</g>
</g>
</svg>
